# Blender 5.1.2
# www.blender.org
o Cube
v 1.000000 1.000000 -1.000000
v 1.000000 -1.000000 -1.000000
v 1.000000 1.000000 1.000000
v 1.000000 -1.000000 1.000000
v -1.000000 1.000000 -1.000000
v -1.000000 -1.000000 -1.000000
v -1.000000 1.000000 1.000000
v -1.000000 -1.000000 1.000000
v 0.279163 2.643617 0.279163
v -0.279163 2.643617 0.279163
v 0.279163 2.643617 -0.279163
v -0.279163 2.643617 -0.279163
vn -0.0000 0.4016 0.9158
vn -0.0000 -0.0000 1.0000
vn -1.0000 -0.0000 -0.0000
vn -0.0000 -1.0000 -0.0000
vn 1.0000 -0.0000 -0.0000
vn -0.0000 -0.0000 -1.0000
vn -0.0000 1.0000 -0.0000
vn -0.9158 0.4016 -0.0000
vn 0.9158 0.4016 -0.0000
vn -0.0000 0.4016 -0.9158
vt 0.625000 1.000000
vt 0.625000 0.750000
vt 0.375000 0.750000
vt 0.375000 1.000000
vt 0.375000 0.000000
vt 0.625000 0.000000
vt 0.625000 0.250000
vt 0.375000 0.250000
vt 0.125000 0.500000
vt 0.375000 0.500000
vt 0.125000 0.750000
vt 0.625000 0.500000
vt 0.875000 0.500000
vt 0.875000 0.750000
s 0
f 7/1/1 3/2/1 9/2/1 10/1/1
f 4/3/2 3/2/2 7/1/2 8/4/2
f 8/5/3 7/6/3 5/7/3 6/8/3
f 6/9/4 2/10/4 4/3/4 8/11/4
f 2/10/5 1/12/5 3/2/5 4/3/5
f 6/8/6 5/7/6 1/12/6 2/10/6
f 11/12/7 12/13/7 10/14/7 9/2/7
f 5/7/8 7/6/8 10/6/8 12/7/8
f 3/2/9 1/12/9 11/12/9 9/2/9
f 1/12/10 5/7/10 12/7/10 11/12/10
